<svg width="2000" height="2000" viewBox="0 0 2000 2000" fill="none" xmlns="http://www.w3.org/2000/svg">
<rect width="2000" height="2000" fill="white"/>
<g filter="url(#filter0_d_35_10)">
<rect x="993" y="151" width="10" height="1678" fill="white"/>
<rect x="995.5" y="153.5" width="5" height="1673" stroke="#D5D5D5" stroke-width="5"/>
</g>
<path d="M1041.12 381.119C950.033 486.59 906.886 1359.12 681.561 1495.76M1041.12 381.119C1132.21 275.648 1160.98 1349.53 1292.81 1495.76M1041.12 381.119C978.749 453.34 938.855 885.219 847.557 1194.21M1041.12 381.119C1104.74 307.457 1137.96 809.062 1197.12 1168.13M681.561 1495.76C456.236 1632.39 453.84 1618.01 453.84 1618.01M681.561 1495.76C752.595 1452.68 805.524 1336.47 847.557 1194.21M1292.81 1495.76C1424.65 1641.98 1534.92 1625.2 1534.92 1625.2M1292.81 1495.76C1253.05 1451.66 1222.67 1323.18 1197.12 1168.13M1041.12 1126.61C830.179 1126.61 585.416 1453.76 310.015 1457.4C504.917 1454.82 684.473 1290.22 847.557 1194.21M1041.12 1126.61C1252.06 1126.61 1213.43 1261.02 1690.73 1443.02C1372.4 1321.64 1283.56 1221.42 1197.12 1168.13M1041.12 1126.61C979.463 1126.61 914.915 1154.56 847.557 1194.21M1041.12 1126.61C1111.38 1126.61 1153.95 1141.52 1197.12 1168.13" stroke="black" stroke-width="10"/>
<mask id="path-5-inside-1_35_10" fill="white">
<path d="M997.975 151C1461.33 151 1836.95 526.622 1836.95 989.975C1836.95 1453.33 1461.33 1828.95 997.975 1828.95C534.622 1828.95 159 1453.33 159 989.975C159 526.622 534.622 151 997.975 151ZM997.974 165.383C542.564 165.383 173.382 534.565 173.382 989.975C173.382 1445.38 542.564 1814.57 997.974 1814.57C1453.38 1814.57 1822.57 1445.38 1822.57 989.975C1822.57 534.565 1453.38 165.383 997.974 165.383Z"/>
</mask>
<path d="M997.975 151C1461.33 151 1836.95 526.622 1836.95 989.975C1836.95 1453.33 1461.33 1828.95 997.975 1828.95C534.622 1828.95 159 1453.33 159 989.975C159 526.622 534.622 151 997.975 151ZM997.974 165.383C542.564 165.383 173.382 534.565 173.382 989.975C173.382 1445.38 542.564 1814.57 997.974 1814.57C1453.38 1814.57 1822.57 1445.38 1822.57 989.975C1822.57 534.565 1453.38 165.383 997.974 165.383Z" fill="black"/>
<path d="M997.975 151L997.975 150H997.975V151ZM1836.95 989.975L1837.95 989.975V989.975H1836.95ZM997.975 1828.95L997.975 1829.95L997.975 1829.95L997.975 1828.95ZM159 989.975L158 989.975L158 989.975L159 989.975ZM997.974 165.383L997.974 164.383L997.974 164.383L997.974 165.383ZM173.382 989.975L172.382 989.975L172.382 989.975L173.382 989.975ZM997.974 1814.57L997.974 1815.57H997.974V1814.57ZM1822.57 989.975L1823.57 989.975V989.975H1822.57ZM997.975 151L997.975 152C1460.77 152 1835.95 527.174 1835.95 989.975H1836.95H1837.95C1837.95 526.07 1461.88 150 997.975 150L997.975 151ZM1836.95 989.975L1835.95 989.975C1835.95 1452.77 1460.77 1827.95 997.975 1827.95L997.975 1828.95L997.975 1829.95C1461.88 1829.95 1837.95 1453.88 1837.95 989.975L1836.95 989.975ZM997.975 1828.95V1827.95C535.174 1827.95 160 1452.77 160 989.975L159 989.975L158 989.975C158 1453.88 534.07 1829.95 997.975 1829.95V1828.95ZM159 989.975H160C160 527.174 535.174 152 997.975 152V151V150C534.07 150 158 526.07 158 989.975H159ZM997.974 165.383L997.974 164.383C542.012 164.383 172.382 534.013 172.382 989.975H173.382H174.382C174.382 535.118 543.117 166.383 997.974 166.383L997.974 165.383ZM173.382 989.975L172.382 989.975C172.382 1445.94 542.012 1815.57 997.974 1815.57L997.974 1814.57L997.974 1813.57C543.117 1813.57 174.382 1444.83 174.382 989.975L173.382 989.975ZM997.974 1814.57V1815.57C1453.94 1815.57 1823.57 1445.94 1823.57 989.975L1822.57 989.975L1821.57 989.975C1821.57 1444.83 1452.83 1813.57 997.974 1813.57V1814.57ZM1822.57 989.975H1823.57C1823.57 534.013 1453.94 164.383 997.974 164.383V165.383V166.383C1452.83 166.383 1821.57 535.117 1821.57 989.975H1822.57Z" fill="black" mask="url(#path-5-inside-1_35_10)"/>
<defs>
<filter id="filter0_d_35_10" x="989" y="151" width="18" height="1686" filterUnits="userSpaceOnUse" color-interpolation-filters="sRGB">
<feFlood flood-opacity="0" result="BackgroundImageFix"/>
<feColorMatrix in="SourceAlpha" type="matrix" values="0 0 0 0 0 0 0 0 0 0 0 0 0 0 0 0 0 0 127 0" result="hardAlpha"/>
<feOffset dy="4"/>
<feGaussianBlur stdDeviation="2"/>
<feComposite in2="hardAlpha" operator="out"/>
<feColorMatrix type="matrix" values="0 0 0 0 0 0 0 0 0 0 0 0 0 0 0 0 0 0 0.25 0"/>
<feBlend mode="normal" in2="BackgroundImageFix" result="effect1_dropShadow_35_10"/>
<feBlend mode="normal" in="SourceGraphic" in2="effect1_dropShadow_35_10" result="shape"/>
</filter>
</defs>
</svg>
